<?xml version="1.0" encoding="UTF-8" standalone="no"?>
<svg
   xmlns:dc="http://purl.org/dc/elements/1.1/"
   xmlns:cc="http://creativecommons.org/ns#"
   xmlns:rdf="http://www.w3.org/1999/02/22-rdf-syntax-ns#"
   xmlns:svg="http://www.w3.org/2000/svg"
   xmlns="http://www.w3.org/2000/svg"
   xmlns:sodipodi="http://sodipodi.sourceforge.net/DTD/sodipodi-0.dtd"
   xmlns:inkscape="http://www.inkscape.org/namespaces/inkscape"
   height="64px"
   id="wheels"
   style="enable-background:new 0 0 64 64;"
   version="1.1"
   viewBox="0 0 64 64"
   width="64px"
   xml:space="preserve"
   inkscape:version="0.48.2 r9819"
   sodipodi:docname="cfg.svg"
   inkscape:export-filename="/Users/garry/workspace/jsduck/lib/jsduck/tag/icons/cfg.png"
   inkscape:export-xdpi="90"
   inkscape:export-ydpi="90"><metadata
     id="metadata9"><rdf:RDF><cc:Work
         rdf:about=""><dc:format>image/svg+xml</dc:format><dc:type
           rdf:resource="http://purl.org/dc/dcmitype/StillImage" /><dc:title></dc:title></cc:Work></rdf:RDF></metadata><defs
     id="defs7" /><sodipodi:namedview
     pagecolor="#ffffff"
     bordercolor="#666666"
     borderopacity="1"
     objecttolerance="10"
     gridtolerance="10"
     guidetolerance="10"
     inkscape:pageopacity="0"
     inkscape:pageshadow="2"
     inkscape:window-width="1186"
     inkscape:window-height="767"
     id="namedview5"
     showgrid="false"
     inkscape:zoom="7.375"
     inkscape:cx="27.113484"
     inkscape:cy="31.103138"
     inkscape:window-x="0"
     inkscape:window-y="0"
     inkscape:window-maximized="0"
     inkscape:current-layer="wheels" /><path
     d="m 25.51995,34.947182 c -1.93751,0 -3.507928,1.571152 -3.507928,3.507194 0,1.937509 1.571152,3.508662 3.507928,3.508662 1.937509,0 3.507927,-1.571887 3.507927,-3.508662 0,-1.936042 -1.569684,-3.507194 -3.507927,-3.507194 z M 44.09699,17.578607 c -1.292162,0.278989 -2.11665,1.554266 -1.836926,2.847163 0.278255,1.294365 1.552798,2.116651 2.847896,1.838395 1.292897,-0.278989 2.116651,-1.554266 1.837661,-2.847163 -0.27899,-1.293631 -1.553531,-2.117385 -2.848631,-1.838395 z m 10.846824,3.807475 -1.206262,-0.386915 c 0.04993,-0.410409 0.07195,-0.823754 0.06167,-1.242238 l 1.2393,-0.266509 c 0.571929,-0.123343 0.940488,-0.693069 0.817147,-1.265731 l -0.299548,-1.387608 c -0.121875,-0.571928 -0.690866,-0.940488 -1.264997,-0.816412 l -1.239302,0.266509 c -0.16666,-0.383977 -0.355345,-0.753272 -0.567524,-1.106414 l 0.939021,-0.850918 c 0.43537,-0.393522 0.467675,-1.069705 0.07636,-1.504342 l -0.952972,-1.05282 c -0.393524,-0.434636 -1.069706,-0.468408 -1.504343,-0.07489 l -0.940488,0.851654 c -0.333319,-0.24742 -0.682791,-0.472815 -1.044744,-0.673247 l 0.388384,-1.208466 C 49.624657,10.110494 49.316299,9.5069949 48.756852,9.328589 L 47.405954,8.8932176 C 46.847975,8.7133434 46.245945,9.022434 46.066804,9.5804131 l -0.386915,1.2055299 c -0.410408,-0.04773 -0.824487,-0.06902 -1.242237,-0.06167 L 44.169674,9.4849686 C 44.046331,8.9130402 43.478074,8.5452137 42.904676,8.6685567 l -1.389074,0.2988122 c -0.571929,0.123343 -0.938287,0.6923347 -0.816412,1.2649981 l 0.267243,1.239302 c -0.384713,0.16519 -0.753273,0.355344 -1.107149,0.568257 l -0.850185,-0.939019 c -0.392787,-0.433904 -1.069704,-0.46841 -1.504341,-0.07489 l -1.053553,0.952236 c -0.433902,0.393529 -0.466941,1.070446 -0.07562,1.504348 l 0.854588,0.940489 c -0.249621,0.332585 -0.474282,0.681322 -0.675448,1.044008 l -1.208468,-0.389116 c -0.557979,-0.179875 -1.161478,0.129951 -1.340619,0.688664 l -0.436104,1.350897 c -0.177673,0.557245 0.132153,1.161477 0.688664,1.341353 l 1.206997,0.387649 c -0.04919,0.409674 -0.07195,0.823753 -0.06167,1.242238 l -1.239303,0.266508 c -0.571194,0.123344 -0.939753,0.693804 -0.81641,1.265733 l 0.298812,1.38834 c 0.124077,0.572663 0.693069,0.94049 1.265731,0.816412 l 1.239303,-0.266508 c 0.165925,0.384711 0.35461,0.754006 0.566789,1.106414 l -0.938287,0.851652 c -0.137292,0.123343 -0.21952,0.278991 -0.276053,0.442713 0.01028,-0.549903 -0.262103,-1.089528 -0.770892,-1.382467 l -1.800218,-1.039603 c -0.742993,-0.428764 -1.700368,-0.1718 -2.129132,0.57046 l -0.928007,1.606392 c -0.570461,-0.195293 -1.157073,-0.353876 -1.759103,-0.47208 v -1.854547 c 0,-0.856791 -0.701879,-1.559404 -1.559406,-1.559404 h -2.078472 c -0.856793,0 -1.559406,0.701879 -1.559406,1.559404 v 1.854547 c -0.601296,0.118204 -1.188642,0.276787 -1.759103,0.47208 l -0.928006,-1.606392 c -0.428764,-0.742994 -1.386873,-0.999958 -2.129133,-0.57046 l -1.800217,1.039603 c -0.742994,0.428763 -0.999223,1.386872 -0.57046,2.129132 l 0.929475,1.609329 c -0.457395,0.399396 -0.886893,0.828894 -1.286288,1.286289 l -1.60933,-0.930209 c -0.742994,-0.428764 -1.700369,-0.1718 -2.129132,0.57046 l -1.039603,1.800217 c -0.428764,0.742993 -0.172534,1.701103 0.57046,2.129865 l 1.606394,0.928009 c -0.192357,0.568257 -0.351675,1.155604 -0.469878,1.756166 h -1.853813 c -0.8575266,0 -1.5594056,0.703348 -1.5594056,1.560139 v 2.079208 c 0,0.857525 0.701879,1.558671 1.5594056,1.558671 h 1.854547 c 0.118203,0.601296 0.276787,1.188643 0.47208,1.759103 l -1.606394,0.928008 c -0.742993,0.428763 -0.999224,1.387606 -0.57046,2.129131 l 1.039604,1.800218 c 0.428762,0.742993 1.386872,0.997755 2.129865,0.568992 l 1.609331,-0.929476 c 0.399395,0.457396 0.828893,0.886893 1.286288,1.286289 l -0.929475,1.608595 c -0.428763,0.743728 -0.1718,1.700369 0.57046,2.129133 l 1.800217,1.039603 c 0.742259,0.428763 1.700369,0.171799 2.129132,-0.570461 l 0.928008,-1.606392 c 0.569727,0.196027 1.157073,0.353141 1.758369,0.472814 v 1.854547 c 0,0.857525 0.701879,1.558671 1.559406,1.558671 h 2.078472 c 0.857527,0 1.559406,-0.701146 1.559406,-1.558671 V 51.67041 c 0.60203,-0.11747 1.188643,-0.276787 1.759103,-0.472814 l 0.928007,1.606392 c 0.428764,0.743728 1.386873,0.999224 2.129133,0.570461 l 1.800217,-1.039603 c 0.742994,-0.428764 0.998489,-1.386873 0.569726,-2.129133 l -0.93021,-1.608595 c 0.457396,-0.399396 0.887628,-0.828893 1.287023,-1.286289 l 1.60933,0.929476 c 0.742994,0.428763 1.699635,0.171799 2.128397,-0.570461 l 1.039604,-1.799483 c 0.428764,-0.742993 0.171799,-1.700368 -0.57046,-2.129131 l -1.606394,-0.927274 c 0.196027,-0.57046 0.353143,-1.157073 0.472814,-1.759103 h 1.854547 c 0.858261,0 1.558671,-0.701146 1.558671,-1.558671 v -2.079208 c 0,-0.856057 -0.70041,-1.55867 -1.558671,-1.55867 H 38.735983 C 38.618515,35.257742 38.459196,34.66966 38.263169,34.0992 l 1.606394,-0.928742 c 0.743728,-0.428763 0.999224,-1.386138 0.57046,-2.129132 l -0.566055,-0.9794 c 0.129216,0.20704 0.323041,0.373699 0.571194,0.453726 l 1.350898,0.43537 c 0.558713,0.179141 1.160009,-0.12995 1.340619,-0.687195 l 0.386914,-1.206998 c 0.410408,0.04773 0.823753,0.06975 1.241503,0.06167 l 0.266509,1.239301 c 0.123343,0.571929 0.692336,0.940489 1.266467,0.817146 l 1.38834,-0.299546 c 0.57193,-0.122609 0.938287,-0.691601 0.816412,-1.264999 L 48.23705,28.3711 c 0.383244,-0.165191 0.753272,-0.355345 1.105679,-0.567524 l 0.849451,0.939755 c 0.393523,0.433902 1.070439,0.468408 1.505076,0.07488 l 1.053553,-0.952235 c 0.434637,-0.393523 0.467675,-1.07044 0.07562,-1.504342 l -0.853118,-0.940485 c 0.248153,-0.332585 0.474282,-0.681322 0.67398,-1.044008 l 1.208465,0.389116 c 0.558715,0.179876 1.160744,-0.129949 1.340619,-0.688664 l 0.435371,-1.350896 c 0.179139,-0.55871 -0.130687,-1.16074 -0.687932,-1.340615 z M 25.51995,46.72642 c -4.560748,0 -8.272044,-3.710564 -8.272044,-8.272044 0,-4.560013 3.711296,-8.269841 8.272044,-8.269841 4.560747,0 8.271309,3.709828 8.271309,8.269841 0,4.56148 -3.710562,8.272044 -8.271309,8.272044 z M 39.760169,29.175767 c -0.08664,0.269445 -0.05653,0.547701 0.05727,0.785575 l -0.414814,-0.719499 c -0.428763,-0.742993 -1.387606,-0.999224 -2.129131,-0.57046 l -1.609331,0.929476 c -0.399398,-0.457397 -0.828896,-0.886894 -1.286291,-1.28629 l 0.930209,-1.609329 c 0.06461,-0.111601 0.107925,-0.229066 0.141698,-0.348003 0.01174,0.237875 0.08664,0.474283 0.258432,0.662967 l 0.954439,1.052086 c 0.392054,0.433901 1.068971,0.467674 1.503607,0.07489 l 0.940489,-0.851654 c 0.332586,0.247421 0.682791,0.472815 1.044743,0.673247 l -0.39132,1.206997 z m 6.033519,-3.731854 c -3.045393,0.65636 -6.057013,-1.287757 -6.714107,-4.332416 -0.657093,-3.045393 1.288492,-6.057013 4.333151,-6.713372 3.043923,-0.65636 6.057011,1.287024 6.712637,4.332416 0.657094,3.046127 -1.288491,6.057747 -4.331681,6.713372 z"
     style="fill:#075382;fill-opacity:1;stroke:none"
     id="path3"
     inkscape:connector-curvature="0" /></svg>