<?xml version="1.0" encoding="UTF-8" standalone="no"?>
<svg
   xmlns:dc="http://purl.org/dc/elements/1.1/"
   xmlns:cc="http://creativecommons.org/ns#"
   xmlns:rdf="http://www.w3.org/1999/02/22-rdf-syntax-ns#"
   xmlns:svg="http://www.w3.org/2000/svg"
   xmlns="http://www.w3.org/2000/svg"
   xmlns:sodipodi="http://sodipodi.sourceforge.net/DTD/sodipodi-0.dtd"
   xmlns:inkscape="http://www.inkscape.org/namespaces/inkscape"
   contentScriptType="text/ecmascript"
   contentStyleType="text/css"
   enable-background="new 0 0 220 227"
   height="24.0px"
   id="Layer_1"
   preserveAspectRatio="xMidYMid meet"
   version="1.0"
   viewBox="91.0 112.27500534057617 24.0 24.0"
   width="24.0px"
   xml:space="preserve"
   zoomAndPan="magnify"
   inkscape:version="0.48.2 r9819"
   sodipodi:docname="class.svg"
   inkscape:export-filename="/Users/garry/Downloads/class.png"
   inkscape:export-xdpi="60"
   inkscape:export-ydpi="60"><metadata
     id="metadata15"><rdf:RDF><cc:Work
         rdf:about=""><dc:format>image/svg+xml</dc:format><dc:type
           rdf:resource="http://purl.org/dc/dcmitype/StillImage" /><dc:title></dc:title></cc:Work></rdf:RDF></metadata><defs
     id="defs13" /><sodipodi:namedview
     pagecolor="#ffffff"
     bordercolor="#666666"
     borderopacity="1"
     objecttolerance="10"
     gridtolerance="10"
     guidetolerance="10"
     inkscape:pageopacity="0"
     inkscape:pageshadow="2"
     inkscape:window-width="1436"
     inkscape:window-height="856"
     id="namedview11"
     showgrid="false"
     inkscape:zoom="9.8333333"
     inkscape:cx="-6.2033898"
     inkscape:cy="12"
     inkscape:window-x="0"
     inkscape:window-y="0"
     inkscape:window-maximized="1"
     inkscape:current-layer="Layer_1" /><g
     id="g3"
     style="fill:#075382;fill-opacity:1"
     transform="matrix(0.77118644,0,0,0.77812018,23.872882,27.777504)"
     inkscape:export-filename="/Users/garry/Downloads/class.png"
     inkscape:export-xdpi="105.14851"
     inkscape:export-ydpi="105.14851"><path
       d="m 115,131.275 c 0,0.553 -0.447,1 -1,1 l -10,3 c -0.553,0 -1,-0.447 -1,-1 v -10 c 0,-0.554 0.447,-1 1,-1 l 10,-3 c 0.553,0 1,0.446 1,1 v 10 z"
       id="path5"
       style="fill:#075382;fill-opacity:1"
       inkscape:connector-curvature="0" /><path
       d="m 102,134.275 c 0,0.553 -0.447,1 -1,1 l -9,-3 c -0.553,0 -1,-0.447 -1,-1 v -10 c 0,-0.554 0.447,-1 1,-1 l 9,3 c 0.553,0 1,0.446 1,1 v 10 z"
       id="path7"
       style="fill:#075382;fill-opacity:1"
       inkscape:connector-curvature="0" /><path
       d="m 115,117.791 c 0,0.484 -0.999,0.818 -0.999,0.818 L 104,121.941 c 0,0 -0.848,0.334 -1.51,0.334 -0.662,0 -1.465,-0.354 -1.465,-0.354 l -8.994,-3.271 c 0,0 -1.031,-0.328 -1.031,-0.859 0,-0.531 1.031,-0.891 1.031,-0.891 l 8.998,-3.271 c 0,0 0.932,-0.354 1.489,-0.354 0.559,0 1.486,0.336 1.486,0.336 l 9.992,3.33 c 0.002,0 1.004,0.366 1.004,0.85 z"
       id="path9"
       style="fill:#075382;fill-opacity:1"
       inkscape:connector-curvature="0" /></g></svg>