<?xml version="1.0" encoding="UTF-8" standalone="no"?>
<svg
   xmlns:dc="http://purl.org/dc/elements/1.1/"
   xmlns:cc="http://creativecommons.org/ns#"
   xmlns:rdf="http://www.w3.org/1999/02/22-rdf-syntax-ns#"
   xmlns:svg="http://www.w3.org/2000/svg"
   xmlns="http://www.w3.org/2000/svg"
   xmlns:sodipodi="http://sodipodi.sourceforge.net/DTD/sodipodi-0.dtd"
   xmlns:inkscape="http://www.inkscape.org/namespaces/inkscape"
   enable-background="new 0 0 32 32"
   height="32px"
   id="stroke_x5F_04"
   version="1.1"
   viewBox="0 0 32 32"
   width="32px"
   xml:space="preserve"
   inkscape:version="0.48.2 r9819"
   sodipodi:docname="1397017507_puzzle_element_piece_part_component.svg"
   inkscape:export-filename="/Users/garry/Downloads/component.png"
   inkscape:export-xdpi="168.75"
   inkscape:export-ydpi="168.75"><metadata
     id="metadata9"><rdf:RDF><cc:Work
         rdf:about=""><dc:format>image/svg+xml</dc:format><dc:type
           rdf:resource="http://purl.org/dc/dcmitype/StillImage" /><dc:title></dc:title></cc:Work></rdf:RDF></metadata><defs
     id="defs7" /><sodipodi:namedview
     pagecolor="#ffffff"
     bordercolor="#666666"
     borderopacity="1"
     objecttolerance="10"
     gridtolerance="10"
     guidetolerance="10"
     inkscape:pageopacity="0"
     inkscape:pageshadow="2"
     inkscape:window-width="1216"
     inkscape:window-height="773"
     id="namedview5"
     showgrid="false"
     inkscape:zoom="7.375"
     inkscape:cx="-8.2711864"
     inkscape:cy="16"
     inkscape:window-x="0"
     inkscape:window-y="0"
     inkscape:window-maximized="0"
     inkscape:current-layer="stroke_x5F_04" /><path
     clip-rule="evenodd"
     d="m 25.191678,22.001 h -0.792373 v 3.169492 c 0,1.750351 -1.41914,3.169491 -3.169492,3.169491 H 18.060322 V 27.54761 c 0,-2.188534 -1.773331,-3.961864 -3.961865,-3.961864 -2.188533,0 -3.961864,1.77333 -3.961864,3.961864 v 0.792373 H 6.9671017 c -1.7503517,0 -3.1694915,-1.41914 -3.1694915,-3.169491 V 22.001 H 4.589983 c 2.188534,0 3.9618645,-1.77333 3.9618645,-3.961864 0,-2.188534 -1.7733305,-3.961865 -3.9618645,-3.961865 H 3.7976102 V 10.90778 c 0,-1.7503521 1.4191398,-3.1694919 3.1694915,-3.1694919 H 10.136593 V 6.9459152 c 0,-2.1885339 1.773331,-3.9618644 3.961864,-3.9618644 2.188534,0 3.961865,1.7733305 3.961865,3.9618644 v 0.7923729 h 3.169491 c 1.750352,0 3.169492,1.4191398 3.169492,3.1694919 v 3.169491 h 0.792373 c 2.188534,0 3.961864,1.773331 3.961864,3.961865 0,2.188534 -1.77333,3.961864 -3.961864,3.961864 z"
     id="path3"
     style="fill:#666666;fill-opacity:1;fill-rule:evenodd"
     inkscape:connector-curvature="0" /></svg>