<?xml version="1.0" encoding="UTF-8" standalone="no"?>
<svg
   xmlns:dc="http://purl.org/dc/elements/1.1/"
   xmlns:cc="http://creativecommons.org/ns#"
   xmlns:rdf="http://www.w3.org/1999/02/22-rdf-syntax-ns#"
   xmlns:svg="http://www.w3.org/2000/svg"
   xmlns="http://www.w3.org/2000/svg"
   xmlns:sodipodi="http://sodipodi.sourceforge.net/DTD/sodipodi-0.dtd"
   xmlns:inkscape="http://www.inkscape.org/namespaces/inkscape"
   enable-background="new 0 0 512 512"
   height="512px"
   id="share"
   version="1.1"
   viewBox="0 0 512 512"
   width="512px"
   xml:space="preserve"
   inkscape:version="0.48.2 r9819"
   sodipodi:docname="handler.svg"
   inkscape:export-filename="/Users/garry/Downloads/handler.png"
   inkscape:export-xdpi="11.25"
   inkscape:export-ydpi="11.25"><metadata
     id="metadata9"><rdf:RDF><cc:Work
         rdf:about=""><dc:format>image/svg+xml</dc:format><dc:type
           rdf:resource="http://purl.org/dc/dcmitype/StillImage" /><dc:title></dc:title></cc:Work></rdf:RDF></metadata><defs
     id="defs7" /><sodipodi:namedview
     pagecolor="#ffffff"
     bordercolor="#666666"
     borderopacity="1"
     objecttolerance="10"
     gridtolerance="10"
     guidetolerance="10"
     inkscape:pageopacity="0"
     inkscape:pageshadow="2"
     inkscape:window-width="1436"
     inkscape:window-height="856"
     id="namedview5"
     showgrid="false"
     inkscape:zoom="0.4609375"
     inkscape:cx="-132.33898"
     inkscape:cy="256"
     inkscape:window-x="0"
     inkscape:window-y="0"
     inkscape:window-maximized="1"
     inkscape:current-layer="share" /><path
     d="m 367.81695,290.37966 c -22.63904,0 -42.90339,10.05127 -56.70826,25.87782 l -95.50881,-47.75365 c 1.08461,-5.08057 1.68149,-10.35535 1.68149,-15.75807 0,-5.40498 -0.59688,-10.67447 -1.68149,-15.75505 l 95.51032,-47.75667 c 13.79884,15.83033 34.06771,25.87783 56.70675,25.87783 41.56665,0 75.2678,-33.70116 75.2678,-75.2678 0,-41.566643 -33.70115,-75.267799 -75.2678,-75.267799 -41.56663,0 -75.26779,33.701156 -75.26779,75.267799 0,5.40498 0.59688,10.67448 1.68148,15.75505 l -95.51032,47.75666 c -13.79884,-15.83031 -34.05867,-25.87781 -56.70675,-25.87781 -41.56665,0 -75.267808,33.70115 -75.267808,75.26779 0,41.56664 33.701158,75.2678 75.267808,75.2678 22.64808,0 42.90339,-10.05126 56.70826,-25.87782 l 95.51182,47.75366 c -1.08761,5.08057 -1.68449,10.35533 -1.68449,15.75805 0,41.56665 33.70116,75.2678 75.26779,75.2678 41.56665,0 75.2678,-33.70115 75.2678,-75.2678 0,-41.56663 -33.70115,-75.26779 -75.2678,-75.26779 z"
     id="path3"
     inkscape:connector-curvature="0"
     style="fill:#fcc33f;fill-opacity:0.94117647" /></svg>