<?xml version="1.0" encoding="UTF-8" standalone="no"?>
<svg
   xmlns:dc="http://purl.org/dc/elements/1.1/"
   xmlns:cc="http://creativecommons.org/ns#"
   xmlns:rdf="http://www.w3.org/1999/02/22-rdf-syntax-ns#"
   xmlns:svg="http://www.w3.org/2000/svg"
   xmlns="http://www.w3.org/2000/svg"
   xmlns:sodipodi="http://sodipodi.sourceforge.net/DTD/sodipodi-0.dtd"
   xmlns:inkscape="http://www.inkscape.org/namespaces/inkscape"
   enable-background="new 0 0 512 512"
   height="512px"
   id="Layer_1"
   version="1.1"
   viewBox="0 0 512 512"
   width="512px"
   xml:space="preserve"
   inkscape:version="0.48.2 r9819"
   sodipodi:docname="interface.svg"
   inkscape:export-filename="/Users/garry/workspace/jsduck/lib/jsduck/tag/icons/interface.png"
   inkscape:export-xdpi="10.55"
   inkscape:export-ydpi="10.55"><metadata
     id="metadata11"><rdf:RDF><cc:Work
         rdf:about=""><dc:format>image/svg+xml</dc:format><dc:type
           rdf:resource="http://purl.org/dc/dcmitype/StillImage" /><dc:title></dc:title></cc:Work></rdf:RDF></metadata><defs
     id="defs9" /><sodipodi:namedview
     pagecolor="#ffffff"
     bordercolor="#666666"
     borderopacity="1"
     objecttolerance="10"
     gridtolerance="10"
     guidetolerance="10"
     inkscape:pageopacity="0"
     inkscape:pageshadow="2"
     inkscape:window-width="1436"
     inkscape:window-height="856"
     id="namedview7"
     showgrid="false"
     inkscape:zoom="0.4609375"
     inkscape:cx="388.24225"
     inkscape:cy="302.44199"
     inkscape:window-x="0"
     inkscape:window-y="0"
     inkscape:window-maximized="1"
     inkscape:current-layer="Layer_1" /><g
     id="g2988"
     transform="matrix(0.93950598,0.64618508,-0.67820822,0.89514516,202.57672,-146.39719)"
     style="fill:#075382;fill-opacity:1"><path
       id="path3"
       d="m 240,202 v -40 h -80 v 0 h 0 c -0.013,0 -0.026,0 -0.039,0 H 159 v 0.012 c -47.934,0.47 -87.796,34.658 -96.998,79.987 H 20 v 40 h 42.002 c 9.201,45.329 49.064,79.517 96.998,79.987 V 362 h 1 0 80 v -40 h -80 v -40 h 80 v -40 h -80 v -40 h 80 z"
       inkscape:connector-curvature="0"
       style="fill:#075382;fill-opacity:1" /><path
       id="path5"
       d="M 480,242 H 437.998 C 428.732,196.355 388.379,162 340,162 v 40 h -80 v 40 h 80 v 40 h -80 v 40 h 80 v 40 c 48.379,0 88.732,-34.355 97.998,-80 H 480 v -40 z"
       inkscape:connector-curvature="0"
       style="fill:#075382;fill-opacity:1" /></g></svg>