<?xml version="1.0" encoding="UTF-8" standalone="no"?>
<svg
   xmlns:dc="http://purl.org/dc/elements/1.1/"
   xmlns:cc="http://creativecommons.org/ns#"
   xmlns:rdf="http://www.w3.org/1999/02/22-rdf-syntax-ns#"
   xmlns:svg="http://www.w3.org/2000/svg"
   xmlns="http://www.w3.org/2000/svg"
   xmlns:sodipodi="http://sodipodi.sourceforge.net/DTD/sodipodi-0.dtd"
   xmlns:inkscape="http://www.inkscape.org/namespaces/inkscape"
   enable-background="new 0 0 32 32"
   height="32px"
   id="Layer_1"
   version="1.1"
   viewBox="0 0 32 32"
   width="32px"
   xml:space="preserve"
   inkscape:version="0.48.2 r9819"
   sodipodi:docname="method.svg"
   inkscape:export-filename="/Users/garry/workspace/jsduck/lib/jsduck/tag/icons/method.png"
   inkscape:export-xdpi="180"
   inkscape:export-ydpi="180"><metadata
     id="metadata19"><rdf:RDF><cc:Work
         rdf:about=""><dc:format>image/svg+xml</dc:format><dc:type
           rdf:resource="http://purl.org/dc/dcmitype/StillImage" /><dc:title></dc:title></cc:Work></rdf:RDF></metadata><defs
     id="defs17" /><sodipodi:namedview
     pagecolor="#ffffff"
     bordercolor="#666666"
     borderopacity="1"
     objecttolerance="10"
     gridtolerance="10"
     guidetolerance="10"
     inkscape:pageopacity="0"
     inkscape:pageshadow="2"
     inkscape:window-width="725"
     inkscape:window-height="480"
     id="namedview15"
     showgrid="false"
     inkscape:zoom="7.375"
     inkscape:cx="16"
     inkscape:cy="16"
     inkscape:window-x="0"
     inkscape:window-y="0"
     inkscape:window-maximized="0"
     inkscape:current-layer="Layer_1" /><g
     id="g3"
     style="fill:#075382;fill-opacity:1;stroke:none"
     transform="matrix(0.83051453,0,0,0.83051453,3.0510048,2.3728692)"><defs
       id="defs5"><rect
         height="32"
         id="SVGID_1_"
         width="32"
         x="0"
         y="0" /></defs><g
       id="g8"
       style="fill:#075382;fill-opacity:1;stroke:none"><defs
         id="defs10"><rect
           height="32"
           id="SVGID_3_"
           width="32"
           x="0"
           y="0" /></defs><path
         d="m 26.501,26.001 c -1.168,0 -1.5,-1 -1.5,-1 l -2.115,-4.23 2.1,-2.561 c 0.533,0.485 1.236,0.791 2.016,0.791 1.656,0 3,-1.345 3,-3 0,-1.656 -1.344,-3 -3,-3 -0.93,0 -1.75,0.432 -2.299,1.095 L 21.557,18.109 19.001,13 H 9.866 l 0.608,-2.671 C 10.495,10.203 10.886,8.061 12.647,6.839 13.196,7.542 14.04,8 15.001,8 c 1.658,0 3,-1.342 3,-3 0,-1.656 -1.342,-3 -3,-3 C 8.962,2 7.007,6.943 6.538,9.611 L 5.784,13 H 2.001 v 3 H 5.116 L 2.001,30 h 4 L 9.185,16 h 6.816 l 2.809,5.613 -2.652,3.384 C 15.609,24.39 14.822,24 13.939,24 c -1.656,0 -3,1.344 -3,3 0,1.655 1.344,3 3,3 0.862,0 1.622,-0.377 2.167,-0.957 l 3.985,-4.863 0.91,1.82 c 1,2 2,4 5,4 2,0 4,-1.503 4,-6 h -2 c 0,1.498 -0.625,2.001 -1.5,2.001"
         id="path13"
         style="fill:#075382;fill-opacity:1;stroke:none"
         inkscape:connector-curvature="0" /></g></g></svg>