<?xml version="1.0" encoding="UTF-8" standalone="no"?>
<svg
   xmlns:dc="http://purl.org/dc/elements/1.1/"
   xmlns:cc="http://creativecommons.org/ns#"
   xmlns:rdf="http://www.w3.org/1999/02/22-rdf-syntax-ns#"
   xmlns:svg="http://www.w3.org/2000/svg"
   xmlns="http://www.w3.org/2000/svg"
   xmlns:sodipodi="http://sodipodi.sourceforge.net/DTD/sodipodi-0.dtd"
   xmlns:inkscape="http://www.inkscape.org/namespaces/inkscape"
   enable-background="new 0 0 157 154"
   height="154px"
   version="1.1"
   viewBox="0 0 157 154"
   width="157px"
   xml:space="preserve"
   id="svg2"
   inkscape:version="0.48.2 r9819"
   sodipodi:docname="singleton.svg"
   inkscape:export-filename="/Users/garry/workspace/jsduck/lib/jsduck/tag/icons/singleton.png"
   inkscape:export-xdpi="34.480518"
   inkscape:export-ydpi="34.480518"><metadata
     id="metadata41"><rdf:RDF><cc:Work
         rdf:about=""><dc:format>image/svg+xml</dc:format><dc:type
           rdf:resource="http://purl.org/dc/dcmitype/StillImage" /><dc:title></dc:title></cc:Work></rdf:RDF></metadata><defs
     id="defs39" /><sodipodi:namedview
     pagecolor="#ffffff"
     bordercolor="#666666"
     borderopacity="1"
     objecttolerance="10"
     gridtolerance="10"
     guidetolerance="10"
     inkscape:pageopacity="0"
     inkscape:pageshadow="2"
     inkscape:window-width="725"
     inkscape:window-height="480"
     id="namedview37"
     showgrid="false"
     inkscape:zoom="1.5324675"
     inkscape:cx="78.5"
     inkscape:cy="77"
     inkscape:window-x="0"
     inkscape:window-y="0"
     inkscape:window-maximized="0"
     inkscape:current-layer="svg2" /><g
     id="New_Symbol_1"
     transform="matrix(0.9613082,0,0,0.9613082,5.9862819,2.0161627)"
     style="fill:#075382;fill-opacity:1"><g
       id="g5"
       style="fill:#075382;fill-opacity:1"><path
         d="m 133.359,100.373 c 0.163,-0.396 0.332,-0.831 0.502,-1.281 -0.152,0.396 -0.318,0.821 -0.502,1.281 z"
         id="path7"
         inkscape:connector-curvature="0"
         style="fill:#075382;fill-opacity:1" /><path
         d="m 30.435,43.614 c -0.176,0.262 -0.36,0.544 -0.546,0.831 0.171,-0.264 0.355,-0.54 0.546,-0.831 z"
         id="path9"
         inkscape:connector-curvature="0"
         style="fill:#075382;fill-opacity:1" /><path
         d="m 135.592,60.799 c -0.031,-0.101 -0.061,-0.2 -0.09,-0.3 -0.088,-0.284 -0.17,-0.56 -0.252,-0.825 -0.012,-0.028 -0.018,-0.056 -0.027,-0.084 0.107,0.357 0.207,0.678 0.299,0.977 0.021,0.078 0.044,0.156 0.07,0.232 z"
         id="path11"
         inkscape:connector-curvature="0"
         style="fill:#075382;fill-opacity:1" /><path
         d="m 123.768,115.846 c -0.063,0.075 -0.127,0.149 -0.189,0.224 0.059,-0.063 0.119,-0.128 0.176,-0.188 0.052,-0.065 0.107,-0.136 0.162,-0.204 -0.045,0.053 -0.092,0.104 -0.139,0.156 0,10e-4 -0.002,0.002 -0.002,0.002 -0.003,0.002 -0.006,0.006 -0.008,0.01 z"
         id="path13"
         inkscape:connector-curvature="0"
         style="fill:#075382;fill-opacity:1" /><path
         d="m 63.085,20.479 c -0.011,0.002 -0.019,0.005 -0.026,0.008 0.022,-0.007 0.045,-0.013 0.07,-0.021 -0.015,0.005 -0.033,0.009 -0.044,0.013 z"
         id="path15"
         inkscape:connector-curvature="0"
         style="fill:#075382;fill-opacity:1" /><path
         d="m 38.526,56.224 c 0.111,1.033 0.262,2.073 0.453,3.115 0.514,2.817 1.317,5.657 2.395,8.479 0.018,0.048 0.035,0.095 0.056,0.143 0.035,0.092 0.071,0.183 0.105,0.275 4.465,11.409 13.395,22.455 25.718,30.35 1.707,1.095 3.479,2.129 5.312,3.094 9.75,5.131 19.515,7.472 28.417,7.447 0.121,-0.002 0.242,-0.002 0.363,-0.003 0.039,0 0.074,0 0.112,0 3.073,-0.037 6.04,-0.36 8.864,-0.949 0.963,-0.201 1.908,-0.435 2.836,-0.697 5.461,-1.542 10.299,-4.134 14.211,-7.641 1.705,-1.529 3.232,-3.232 4.563,-5.098 2.268,-3.18 3.955,-6.833 4.936,-10.899 0.756,-3.13 1.092,-6.506 0.955,-10.102 -0.076,-1.052 -0.176,-2.127 -0.281,-3.149 0.008,0.048 0.016,0.095 0.02,0.141 -0.027,-0.247 -0.057,-0.509 -0.09,-0.786 -0.041,-0.346 -0.084,-0.718 -0.133,-1.117 -0.01,-0.112 -0.023,-0.227 -0.039,-0.344 -0.035,-0.201 -0.072,-0.393 -0.107,-0.582 -0.004,0 0,0 0,0 -0.344,-1.803 -0.566,-2.979 -0.771,-3.917 -0.006,-0.021 -0.01,-0.04 -0.016,-0.061 -0.258,-1.028 -0.615,-2.304 -1.182,-4.333 -0.379,-1.074 -0.844,-2.319 -1.327,-3.559 -0.325,-0.839 -0.657,-1.675 -0.977,-2.453 -0.011,-0.015 -0.015,-0.031 -0.022,-0.048 -0.053,-0.118 -0.106,-0.241 -0.164,-0.367 1.229,2.999 2.137,5.89 2.742,8.667 1.074,4.896 1.225,9.428 0.59,13.537 v 0.002 c -0.658,4.275 -2.164,8.091 -4.352,11.382 -1.271,1.911 -2.775,3.641 -4.475,5.184 -3.908,3.547 -8.865,6.085 -14.484,7.451 -0.982,0.239 -1.979,0.446 -2.998,0.612 -3.037,0.497 -6.23,0.667 -9.534,0.494 -0.03,-0.001 -0.06,-0.002 -0.091,-0.003 -0.125,-0.008 -0.252,-0.011 -0.377,-0.02 C 94.397,100.136 88.77,98.897 83.103,96.652 79.695,95.302 76.497,93.714 73.511,91.937 62.457,85.356 54.394,76.143 49.88,66.427 49.835,66.327 49.787,66.229 49.741,66.131 49.732,66.104 49.716,66.076 49.706,66.05 48.349,63.065 47.327,60.033 46.66,57.023 46.416,55.933 46.222,54.845 46.074,53.762 45.303,48.17 45.785,42.719 47.622,37.808 c 0.811,-2.17 1.886,-4.231 3.237,-6.151 2.186,-3.111 5.093,-5.848 8.756,-8.071 1.138,-0.691 2.342,-1.336 3.625,-1.923 2.548,-1.161 5.03,-1.915 7.372,-2.404 3.582,-0.745 6.824,-0.868 9.415,-0.854 0.964,0.025 1.938,0.063 2.85,0.11 -0.192,-0.012 -0.374,-0.025 -0.544,-0.037 -1.027,-0.048 -2.092,-0.078 -3.112,-0.093 -0.061,0 -0.121,0 -0.181,0 -0.144,-0.003 -0.284,-0.005 -0.425,-0.007 -0.612,0.003 -1.324,0.009 -2.167,0.014 -2.158,0.161 -3.497,0.262 -4.589,0.373 -1.055,0.145 -2.384,0.36 -4.526,0.708 -0.36,0.084 -0.693,0.163 -1.012,0.239 -1.523,0.36 -2.607,0.622 -3.537,0.868 -0.33,0.109 -0.657,0.219 -0.979,0.333 -3.764,1.325 -7.045,2.984 -9.861,4.92 -3.537,2.43 -6.344,5.292 -8.471,8.469 -1.297,1.936 -2.344,3.988 -3.145,6.132 -1.829,4.902 -2.391,10.272 -1.802,15.79 z"
         id="path17"
         inkscape:connector-curvature="0"
         style="fill:#075382;fill-opacity:1" /><path
         d="m 105.869,130.015 c 0.15,-0.075 0.301,-0.152 0.449,-0.228 0.051,-0.027 0.099,-0.057 0.148,-0.083 -0.2,0.108 -0.4,0.209 -0.597,0.311 z"
         id="path19"
         inkscape:connector-curvature="0"
         style="fill:#075382;fill-opacity:1" /><path
         d="m 131.115,105.057 c -0.016,0.026 -0.027,0.054 -0.043,0.079 0.008,-0.011 0.014,-0.022 0.021,-0.033 0.026,-0.053 0.057,-0.103 0.084,-0.153 0.371,-0.682 0.729,-1.379 1.078,-2.109 0.008,-0.014 0.014,-0.027 0.02,-0.041 0.392,-0.834 0.768,-1.698 1.084,-2.426 -0.683,1.505 -1.209,2.639 -1.699,3.622 -0.184,0.37 -0.363,0.722 -0.545,1.061 z"
         id="path21"
         inkscape:connector-curvature="0"
         style="fill:#075382;fill-opacity:1" /><path
         d="m 26.973,49.198 c -0.035,0.073 -0.065,0.148 -0.1,0.222 0.116,-0.215 0.232,-0.428 0.353,-0.64 0.075,-0.135 0.151,-0.271 0.227,-0.405 -0.167,0.281 -0.328,0.559 -0.48,0.823 z"
         id="path23"
         inkscape:connector-curvature="0"
         style="fill:#075382;fill-opacity:1" /><path
         d="m 135.119,95.618 c -0.053,0.16 -0.107,0.321 -0.162,0.486 0.045,-0.122 0.086,-0.243 0.127,-0.361 0.029,-0.093 0.061,-0.186 0.09,-0.28 0.016,-0.047 0.035,-0.099 0.051,-0.145 0.01,-0.034 0.02,-0.072 0.029,-0.105 -0.02,0.063 -0.039,0.123 -0.061,0.186 -0.012,0.033 -0.023,0.064 -0.037,0.097 -0.011,0.039 -0.027,0.08 -0.037,0.122 z"
         id="path25"
         inkscape:connector-curvature="0"
         style="fill:#075382;fill-opacity:1" /><path
         d="m 23.454,75.269 c 0.52,2.87 1.31,5.702 2.352,8.476 0.03,0.084 0.063,0.168 0.096,0.251 0.035,0.09 0.071,0.181 0.106,0.271 9.602,24.778 38.814,44.672 65.452,44.938 0.084,10e-4 0.17,0 0.254,10e-4 0.015,0 0.025,-10e-4 0.04,0 3.003,0.014 5.977,-0.221 8.882,-0.73 1.023,-0.18 2.039,-0.392 3.049,-0.642 1.648,-0.406 3.275,-0.905 4.865,-1.503 3.867,-1.452 7.023,-3.335 9.512,-5.188 1.643,-1.226 2.992,-2.438 4.059,-3.502 0.624,-0.66 1.137,-1.217 1.6,-1.741 0.016,-0.019 0.033,-0.036 0.049,-0.054 0.002,-0.006 0.008,-0.008 0.01,-0.013 0.037,-0.047 0.078,-0.093 0.115,-0.141 0.105,-0.126 0.211,-0.257 0.32,-0.394 0.188,-0.234 0.385,-0.478 0.592,-0.741 0.592,-0.755 1.275,-1.648 2.152,-2.799 0.123,-0.164 0.252,-0.332 0.383,-0.506 0.217,-0.335 0.422,-0.659 0.629,-0.979 0.003,-0.006 0.006,-0.012 0.01,-0.018 0.586,-0.912 1.07,-1.677 1.496,-2.366 0.402,-0.647 0.75,-1.229 1.076,-1.804 0.098,-0.178 0.193,-0.354 0.287,-0.532 0.729,-1.372 1.428,-2.86 2.521,-5.182 0.768,-2.043 1.291,-3.429 1.705,-4.636 -1.467,3.802 -3.342,7.12 -5.561,9.976 -1.449,1.867 -3.045,3.537 -4.768,5.017 l 0,0 c -4.076,3.505 -8.852,5.946 -14.057,7.418 -0.95,0.269 -1.911,0.504 -2.887,0.708 -2.768,0.581 -5.641,0.907 -8.574,0.992 -0.023,0 -0.045,0.003 -0.068,0.003 -0.102,0.002 -0.203,0.007 -0.306,0.009 C 85.578,120.153 71.037,115.551 58.669,107.275 48.488,100.46 39.783,91.153 34.477,80.031 33.817,78.654 32.931,76.614 32.081,74.099 32.051,74.011 32.02,73.923 31.99,73.834 31.975,73.787 31.96,73.739 31.945,73.691 31.147,71.271 30.394,68.437 29.91,65.336 29.755,64.344 29.628,63.321 29.533,62.279 29.1,57.395 29.428,52.021 31.27,46.669 c 0.716,-2.067 1.652,-4.129 2.858,-6.16 1.689,-2.843 3.912,-5.622 6.779,-8.257 0.672,-0.559 1.36,-1.118 2.04,-1.654 -0.182,0.125 -0.363,0.25 -0.544,0.378 -0.753,0.606 -1.528,1.271 -2.498,2.122 -0.561,0.491 -1.183,1.042 -1.905,1.685 -1.891,1.967 -3.036,3.16 -3.987,4.236 -0.919,1.107 -1.921,2.423 -3.575,4.595 -0.558,0.874 -1.037,1.619 -1.458,2.283 -0.078,0.124 -0.154,0.244 -0.226,0.362 -0.034,0.049 -0.064,0.098 -0.094,0.145 -0.015,0.025 -0.027,0.046 -0.042,0.07 -0.076,0.119 -0.153,0.244 -0.229,0.367 -0.03,0.048 -0.06,0.096 -0.091,0.145 -0.397,0.644 -0.742,1.222 -1.069,1.794 -0.146,0.27 -0.292,0.541 -0.436,0.818 -0.022,0.046 -0.042,0.093 -0.065,0.14 -0.949,2.053 -1.719,4.116 -2.318,6.182 -1.563,5.38 -1.974,10.779 -1.419,16.074 0.111,1.098 0.267,2.188 0.463,3.275 z"
         id="path27"
         inkscape:connector-curvature="0"
         style="fill:#075382;fill-opacity:1" /><path
         d="m 123.775,115.835 c 0,0 0.002,-10e-4 0.002,-0.002 -0.002,0.005 -0.008,0.007 -0.01,0.013 0.003,-0.004 0.006,-0.008 0.008,-0.011 z"
         id="path29"
         inkscape:connector-curvature="0"
         style="fill:#075382;fill-opacity:1" /><path
         d="m 19.94,81.444 c 0.01,0.136 0.022,0.275 0.035,0.418 0.101,1.076 0.249,2.36 0.473,4.261 0.011,0.087 0.021,0.171 0.03,0.261 0.02,0.105 0.038,0.204 0.056,0.306 0.373,1.961 0.612,3.208 0.823,4.195 0.254,1.007 0.603,2.249 1.148,4.209 0.018,0.061 0.032,0.119 0.05,0.182 0.033,0.093 0.063,0.182 0.096,0.27 0.053,0.153 0.108,0.302 0.159,0.445 0.352,0.996 0.629,1.773 0.86,2.414 0.526,1.25 1.088,2.473 1.677,3.658 1.536,3.086 3.275,5.953 5.182,8.607 0.125,0.173 0.249,0.348 0.374,0.519 0.285,0.388 0.574,0.772 0.869,1.153 8.244,10.688 19.238,17.664 30.114,21.26 0.315,0.104 0.629,0.203 0.941,0.302 0.226,0.07 0.454,0.14 0.68,0.209 3.819,1.145 7.608,1.878 11.238,2.206 0.191,0.017 0.382,0.032 0.572,0.047 0.302,0.023 0.601,0.046 0.903,0.064 0.532,0.02 1.063,0.036 1.575,0.051 0.126,0.004 0.245,0.008 0.368,0.011 0.536,0 1.158,-0.003 1.913,-0.008 0.368,-0.003 0.766,-0.005 1.201,-0.009 0.018,0 0.035,0 0.055,-0.001 0.019,0 0.031,-0.003 0.049,-0.003 2.127,-0.158 3.456,-0.259 4.541,-0.37 1.053,-0.144 2.381,-0.358 4.527,-0.706 2.09,-0.494 3.449,-0.814 4.576,-1.115 0.111,-0.029 0.219,-0.059 0.325,-0.088 0.087,-0.026 0.179,-0.054 0.269,-0.084 1.063,-0.331 2.336,-0.767 4.275,-1.433 0.051,-0.018 0.102,-0.035 0.15,-0.053 0.09,-0.035 0.182,-0.073 0.275,-0.108 0.012,-0.006 0.027,-0.01 0.041,-0.017 0.008,-0.004 0.016,-0.008 0.025,-0.011 0.057,-0.024 0.105,-0.046 0.162,-0.07 2.195,-0.944 3.574,-1.542 4.834,-2.158 0.025,-0.016 0.053,-0.027 0.08,-0.043 0.906,-0.473 1.902,-1.032 3.283,-1.819 0.434,-0.248 0.902,-0.518 1.425,-0.816 0.245,-0.167 0.478,-0.327 0.704,-0.48 0.475,-0.325 0.91,-0.622 1.313,-0.898 -4.764,2.899 -9.738,4.838 -14.801,5.936 -1.047,0.227 -2.097,0.418 -3.148,0.574 -3.186,0.473 -6.393,0.627 -9.595,0.493 -0.11,-0.005 -0.221,-0.008 -0.332,-0.014 -0.055,-0.004 -0.11,-0.004 -0.166,-0.007 -24.938,-1.275 -49.423,-19.953 -59.148,-41.966 -0.042,-0.099 -0.083,-0.195 -0.126,-0.291 -0.068,-0.155 -0.133,-0.311 -0.199,-0.465 -1.175,-2.764 -2.114,-5.575 -2.794,-8.41 -0.277,-1.16 -0.511,-2.323 -0.7,-3.488 -0.765,-4.743 -0.775,-9.513 0.101,-14.187 -0.098,0.405 -0.204,0.839 -0.317,1.307 -0.277,1.689 -0.478,2.928 -0.629,3.965 -0.075,0.501 -0.136,0.955 -0.188,1.39 -0.023,0.217 -0.043,0.441 -0.06,0.67 -0.099,1.211 -0.174,2.631 -0.288,4.752 0.048,2.274 0.078,3.693 0.136,4.867 0.003,0.037 0.005,0.077 0.008,0.116 z"
         id="path31"
         inkscape:connector-curvature="0"
         style="fill:#075382;fill-opacity:1" /><path
         d="m 111.872,126.445 1.082,-0.721 c -0.095,0.061 -0.19,0.119 -0.286,0.18 -0.252,0.172 -0.517,0.354 -0.796,0.541 z"
         id="path33"
         inkscape:connector-curvature="0"
         style="fill:#075382;fill-opacity:1" /><path
         d="m 68.013,30.441 c -1.495,1.816 -2.678,3.884 -3.489,6.175 -1.049,2.963 -1.478,6.296 -1.155,9.921 0.229,2.543 0.763,5.004 1.551,7.367 0.46,1.381 1.004,2.729 1.634,4.038 4.059,8.456 11.435,15.348 19.813,19.635 5.07,2.596 10.503,4.235 15.785,4.695 1.475,0.13 2.936,0.163 4.375,0.103 6.006,-0.254 11.611,-2.194 16.008,-6.187 0.778,-0.707 1.523,-1.471 2.221,-2.31 0.826,-0.988 1.541,-2.043 2.15,-3.142 2.041,-3.697 2.881,-7.97 2.604,-12.431 -0.354,-5.632 -2.498,-11.561 -6.262,-17.008 -6.601,-9.564 -16.635,-16.341 -28.125,-18.665 -6.077,-1.229 -11.796,-0.877 -16.67,0.772 -4.229,1.435 -7.814,3.845 -10.44,7.037 z m 13.67,-5.321 c 4.234,-1.288 9.09,-1.44 14.042,-0.439 10.35,2.092 19.402,8.101 25.49,16.921 3.336,4.832 5.264,10.05 5.581,15.09 0.244,3.883 -0.517,7.541 -2.195,10.58 -0.513,0.932 -1.12,1.814 -1.798,2.628 -0.563,0.679 -1.203,1.341 -1.893,1.968 -2.153,1.955 -4.717,3.393 -7.628,4.278 l 0,0 c -1.927,0.586 -4.007,0.929 -6.183,1.02 -1.279,0.056 -2.583,0.024 -3.887,-0.089 C 98.519,76.667 93.589,75.198 88.958,72.826 81.013,68.76 74.472,62.294 71.015,55.088 c -0.556,-1.157 -1.044,-2.365 -1.452,-3.593 -0.718,-2.147 -1.178,-4.34 -1.375,-6.515 -0.269,-3.031 0.061,-5.884 0.977,-8.479 0.67,-1.888 1.654,-3.63 2.928,-5.179 2.21,-2.688 5.289,-4.758 8.904,-5.98 0.228,-0.077 0.454,-0.152 0.686,-0.222 z"
         id="path35"
         inkscape:connector-curvature="0"
         style="fill:#075382;fill-opacity:1" /></g></g></svg>